<svg xmlns="http://www.w3.org/2000/svg" viewBox="34 24 166 152" role="img" aria-label="Skyways mark">
  <path fill="#c2f213" d="M57.63,99.95v-19.33c0-.57.47-1.02,1.04-1.02,29.24,0,42.81,0,72.23,0,2.92,0,5.41-1.09,7.48-3.28,1.97-2.08,3.95-4.15,5.87-6.28,2.71-2.99,5.6-5.71,9.15-7.53,2.83-1.45,5.78-2.93,8.92-3.02,2.86-.08,10.48-.02,13.33,0,.86,0,.87.34.87.94,0,6.47,0,12.94,0,19.41q0,.99-.93.99c-10.26,0-25.32,0-35.58,0-2.79,0-5.25.99-7.26,3.09-2.37,2.47-4.73,4.96-7.03,7.51-5.88,6.5-13.01,9.59-21.49,9.57-20.53-.07-25.29-.04-45.57-.03-.57,0-1.04-.46-1.04-1.02Z"/>
  <path fill="#c2f213" d="M176.53,99.96v19.33c0,.57-.47,1.02-1.04,1.02-29.24,0-42.81,0-72.23,0-2.92,0-5.41,1.09-7.48,3.28-1.97,2.08-3.95,4.15-5.87,6.28-2.71,2.99-5.6,5.71-9.15,7.53-2.83,1.45-5.78,2.93-8.92,3.02-2.86.08-10.48.02-13.33,0-.86,0-.87-.34-.87-.94,0-6.47,0-12.94,0-19.41q0-.99.93-.99c10.26,0,25.32,0,35.58,0,2.79,0,5.25-.99,7.26-3.09,2.37-2.47,4.73-4.96,7.03-7.51,5.88-6.5,13.01-9.59,21.49-9.57,20.53.07,25.29.04,45.57.03.57,0,1.04.46,1.04,1.02Z"/>
</svg>
