<?xml version="1.0" encoding="UTF-8"?>
<svg id="Layer_1" data-name="Layer 1" xmlns="http://www.w3.org/2000/svg" viewBox="0 0 675.39 199.91">
  <defs>
    <style>
      .cls-1 {
        fill: #c2f213;
      }

      .cls-1, .cls-2 {
        stroke-width: 0px;
      }

      .cls-2 {
        fill: #ffffff;
      }
    </style>
  </defs>
  <g>
    <path class="cls-2" d="M567.41,71.57l-22.19,65.27c-.73,2.16-2.76,3.61-5.05,3.61h-11.47l4.39-12.86-19.04-56.02h15.3l11.39,35.7,11.39-35.7h15.28Z"/>
    <path class="cls-2" d="M261.07,98.25c-1.59-2.4-3.51-4.35-5.7-5.79-2.17-1.43-4.4-2.48-6.61-3.14-2.17-.64-3.89-1.09-5.1-1.33-4.09-1.04-7.4-1.89-9.93-2.56-2.49-.66-4.46-1.32-5.85-1.98-1.32-.62-2.21-1.28-2.64-1.98-.43-.7-.65-1.64-.65-2.81,0-1.28.28-2.34.82-3.16.56-.84,1.29-1.56,2.17-2.12.88-.57,1.88-.97,2.96-1.2,2.85-.6,5.75-.39,8.14.09,1.42.29,2.7.79,3.79,1.48,1.07.68,1.94,1.62,2.59,2.81.66,1.2,1.05,2.75,1.17,4.61l.03.54h15.04v-.58c0-3.86-.75-7.2-2.22-9.93-1.47-2.72-3.49-4.99-5.99-6.75-2.49-1.74-5.37-3.02-8.57-3.8-5.91-1.43-12.49-1.69-18.92.05-2.98.81-5.69,2.07-8.06,3.75-2.38,1.69-4.33,3.83-5.8,6.36-1.48,2.55-2.23,5.59-2.23,9.03,0,3.08.59,5.74,1.76,7.92,1.16,2.17,2.71,4,4.6,5.45,1.86,1.43,4.01,2.61,6.37,3.51,2.34.89,4.76,1.65,7.19,2.26,2.35.66,4.73,1.28,7.07,1.84,2.28.54,4.35,1.18,6.14,1.9,1.75.7,3.18,1.58,4.25,2.62,1.02.99,1.52,2.27,1.52,3.89,0,1.5-.39,2.75-1.15,3.71-.8,1-1.81,1.79-3,2.36-1.22.58-2.55.98-3.95,1.19-3.5.51-6.5.39-9.38-.36-1.69-.44-3.18-1.12-4.43-2.01-1.23-.88-2.24-2.06-2.98-3.5h0c-.75-1.43-1.12-3.22-1.12-5.32v-.58h-15.07v.57c-.07,4.11.69,7.71,2.25,10.71,1.56,3,3.7,5.5,6.35,7.43,2.64,1.93,5.72,3.36,9.17,4.26,3.42.89,7,1.35,10.63,1.35,4.49,0,8.51-.53,11.93-1.58,3.44-1.05,6.37-2.55,8.71-4.45,2.35-1.91,4.14-4.21,5.33-6.85,1.19-2.63,1.79-5.51,1.79-8.57,0-3.76-.82-6.9-2.43-9.34Z"/>
    <path class="cls-2" d="M446.57,71.57l-10.3,37.95h-.21l-9.54-37.95h-14.96l-9.33,38.07h-.21l-10.3-38.07h-16.26l17.77,56.06h15.95l9.54-37.63h.21l9.97,37.63h15.84l17.67-56.06h-15.84Z"/>
    <path class="cls-2" d="M616.23,103.07c-1.01-1.78-2.35-3.25-4.02-4.45-1.67-1.19-3.56-2.15-5.7-2.88-2.13-.72-4.31-1.33-6.55-1.84-2.17-.51-4.31-.98-6.4-1.42-2.09-.43-3.95-.92-5.58-1.46-1.62-.54-2.95-1.25-3.96-2.12-1.01-.87-1.51-1.98-1.51-3.35,0-1.16.28-2.08.87-2.77.57-.69,1.28-1.2,2.1-1.58.83-.36,1.76-.6,2.77-.7,1.01-.11,1.96-.17,2.83-.17,2.75,0,5.13.53,7.15,1.58,2.03,1.05,3.15,3.05,3.37,6.02h14.64c-.29-3.48-1.18-6.35-2.66-8.62-1.49-2.28-3.34-4.11-5.58-5.48-2.25-1.37-4.79-2.34-7.65-2.93-2.85-.57-5.8-.87-8.84-.87s-6,.27-8.89.81c-2.89.54-5.49,1.49-7.81,2.83-2.31,1.34-4.16,3.16-5.58,5.47-1.41,2.32-2.12,5.28-2.12,8.89,0,2.47.51,4.54,1.52,6.24,1.01,1.7,2.35,3.12,4.02,4.23,1.67,1.13,3.56,2.03,5.7,2.71,2.13.69,4.31,1.28,6.55,1.79,5.5,1.16,9.78,2.31,12.85,3.47,3.07,1.16,4.61,2.89,4.61,5.21,0,1.37-.33,2.51-.98,3.41-.65.9-1.46,1.63-2.44,2.17-.98.54-2.06.93-3.25,1.19-1.19.25-2.33.37-3.41.37-1.52,0-2.98-.18-4.4-.54-1.41-.36-2.66-.92-3.74-1.68-1.08-.77-1.97-1.73-2.66-2.93-.69-1.19-1.04-2.62-1.04-4.29h-14.63c.15,3.76.99,6.89,2.54,9.39,1.55,2.49,3.55,4.49,5.97,6.01,2.42,1.52,5.19,2.61,8.3,3.25,3.11.65,6.29.98,9.54.98s6.3-.3,9.38-.92c3.07-.61,5.81-1.68,8.19-3.2,2.39-1.52,4.31-3.52,5.8-6.02,1.49-2.49,2.23-5.58,2.23-9.26,0-2.61-.51-4.8-1.52-6.56Z"/>
    <path class="cls-2" d="M375.26,71.57l-22.19,65.27c-.73,2.16-2.76,3.61-5.05,3.61h-11.47l4.39-12.86-19.04-56.02h15.3l11.39,35.7,11.39-35.7h15.28Z"/>
    <path class="cls-2" d="M510.98,77.81c-1.52-2.06-3.47-3.67-5.85-4.83-2.39-1.16-5.03-1.94-7.91-2.33-2.89-.39-5.75-.6-8.58-.6-3.11,0-6.19.3-9.26.92-3.07.61-5.84,1.64-8.3,3.08-2.46,1.45-4.49,3.37-6.08,5.75-1.59,2.39-2.49,5.38-2.71,9h15.4c.29-3.04,1.31-5.21,3.04-6.52,1.73-1.29,4.12-1.95,7.16-1.95,1.37,0,2.66.09,3.85.27,1.19.18,2.24.54,3.14,1.08.91.55,1.63,1.31,2.17,2.28.89,1.62,1.64,5.75-.6,7.59-1.01.83-2.39,1.46-4.12,1.9-1.73.43-3.73.75-5.97.97-2.24.23-4.51.52-6.83.88-2.31.36-4.6.84-6.89,1.46-2.27.61-4.3,1.53-6.07,2.76-1.78,1.24-3.22,2.88-4.34,4.94-1.11,2.06-1.68,4.68-1.68,7.86,0,2.89.5,5.39,1.46,7.48.98,2.09,2.33,3.83,4.06,5.2,1.74,1.37,3.76,2.39,6.08,3.04,2.32.65,4.81.98,7.48.98,3.47,0,6.87-.51,10.19-1.52,3.04-.92,5.72-2.48,8.03-4.68v4.76l15.4.02v-41.63c0-3.4-.75-6.12-2.27-8.18ZM497.86,105.94c0,.87-.09,2.03-.27,3.47-.18,1.45-.66,2.87-1.46,4.29-.8,1.41-2.03,2.61-3.68,3.62-1.67,1.01-4.02,1.52-7.06,1.52-1.23,0-2.42-.11-3.58-.33-1.15-.21-2.16-.6-3.03-1.14-.87-.54-1.55-1.28-2.06-2.22-.51-.95-.77-2.1-.77-3.48,0-1.44.26-2.63.77-3.58.51-.93,1.17-1.71,2-2.33.83-.61,1.8-1.1,2.93-1.46,1.13-.36,2.26-.65,3.41-.87,1.24-.21,2.46-.39,3.69-.54,1.23-.15,2.4-.33,3.52-.54,1.13-.23,2.17-.5,3.15-.81.97-.33,1.79-.78,2.43-1.36v5.75Z"/>
    <polygon class="cls-2" points="300.17 99.55 321.68 127.58 304.7 127.58 284.32 99.55 304.7 71.51 321.68 71.51 300.17 99.55"/>
    <rect class="cls-2" x="268.92" y="60.22" width="15.4" height="67.41"/>
  </g>
  <g>
    <path class="cls-1" d="M57.63,99.95v-19.33c0-.57.47-1.02,1.04-1.02,29.24,0,42.81,0,72.23,0,2.92,0,5.41-1.09,7.48-3.28,1.97-2.08,3.95-4.15,5.87-6.28,2.71-2.99,5.6-5.71,9.15-7.53,2.83-1.45,5.78-2.93,8.92-3.02,2.86-.08,10.48-.02,13.33,0,.86,0,.87.34.87.94,0,6.47,0,12.94,0,19.41q0,.99-.93.99c-10.26,0-25.32,0-35.58,0-2.79,0-5.25.99-7.26,3.09-2.37,2.47-4.73,4.96-7.03,7.51-5.88,6.5-13.01,9.59-21.49,9.57-20.53-.07-25.29-.04-45.57-.03-.57,0-1.04-.46-1.04-1.02Z"/>
    <path class="cls-1" d="M176.53,99.96v19.33c0,.57-.47,1.02-1.04,1.02-29.24,0-42.81,0-72.23,0-2.92,0-5.41,1.09-7.48,3.28-1.97,2.08-3.95,4.15-5.87,6.28-2.71,2.99-5.6,5.71-9.15,7.53-2.83,1.45-5.78,2.93-8.92,3.02-2.86.08-10.48.02-13.33,0-.86,0-.87-.34-.87-.94,0-6.47,0-12.94,0-19.41q0-.99.93-.99c10.26,0,25.32,0,35.58,0,2.79,0,5.25-.99,7.26-3.09,2.37-2.47,4.73-4.96,7.03-7.51,5.88-6.5,13.01-9.59,21.49-9.57,20.53.07,25.29.04,45.57.03.57,0,1.04.46,1.04,1.02Z"/>
  </g>
</svg>